<?xml version="1.0" standalone="no"?>
<!DOCTYPE svg PUBLIC "-//W3C//DTD SVG 20010904//EN"
 "http://www.w3.org/TR/2001/REC-SVG-20010904/DTD/svg10.dtd">
<svg version="1.0" xmlns="http://www.w3.org/2000/svg"
 width="900.000000pt" height="680.000000pt" viewBox="0 0 900.000000 680.000000"
 preserveAspectRatio="xMidYMid meet">

<g transform="translate(0.000000,680.000000) scale(0.100000,-0.100000)"
fill="#000000" stroke="none">
<path d="M3997 5799 c-64 -102 -107 -246 -107 -359 0 -48 6 -80 35 -209 7 -26
3 -26 -120 -1 -95 19 -383 8 -462 -18 -95 -32 -253 -116 -240 -128 2 -2 40 12
84 31 163 71 384 97 538 65 94 -20 231 -90 303 -155 35 -32 65 -55 68 -52 3 3
-6 36 -21 74 -15 37 -42 122 -59 188 -29 112 -31 131 -30 285 1 148 4 173 27
245 14 43 24 81 22 83 -2 2 -19 -20 -38 -49z"/>
<path d="M4333 3348 c-100 -158 -149 -316 -139 -453 3 -44 13 -106 21 -139 9
-32 14 -61 11 -64 -4 -3 -30 0 -59 7 -28 8 -115 16 -192 18 -226 8 -375 -30
-540 -138 -99 -64 -99 -77 0 -24 51 28 161 69 245 92 46 12 104 17 200 17 115
1 145 -3 204 -22 128 -43 203 -90 297 -185 l61 -62 -17 40 c-148 335 -185 630
-107 843 29 77 33 98 15 70z"/>
<path d="M482 2049 c-133 -133 -242 -247 -242 -254 0 -7 43 -24 103 -40 158
-42 207 -58 207 -67 0 -9 -88 -143 -273 -418 -69 -102 -122 -188 -119 -191 7
-5 134 -19 492 -54 234 -23 455 -44 610 -60 80 -8 228 -21 330 -30 102 -9 239
-22 305 -30 66 -8 201 -21 300 -30 99 -9 236 -22 305 -31 69 -8 267 -28 440
-44 173 -17 320 -33 325 -35 6 -3 -10 -2 -35 0 -104 12 -1498 17 -1640 6 -351
-27 -769 -41 -1230 -41 l-345 0 3 -177 c2 -152 5 -180 19 -190 11 -8 52 -13
112 -13 200 0 754 36 1006 65 66 8 179 21 250 29 72 9 175 20 230 26 55 6 156
18 225 26 295 35 558 59 915 84 290 20 825 8 1115 -24 187 -21 456 -66 478
-80 29 -18 133 -23 193 -10 56 12 213 40 419 74 262 43 769 60 1180 40 192 -9
538 -36 585 -45 17 -3 77 -10 135 -15 140 -12 385 -39 413 -45 12 -3 67 -9
122 -15 55 -5 177 -18 270 -29 94 -10 204 -22 245 -26 41 -3 109 -10 150 -15
106 -14 611 -40 763 -40 l127 0 0 190 0 190 -337 0 c-380 0 -667 7 -888 21
-414 25 -699 31 -1300 25 -346 -4 -670 -8 -720 -11 -141 -6 -82 2 205 30 267
26 416 41 480 50 19 3 89 9 155 15 66 6 136 13 155 16 19 2 82 9 140 14 359
32 449 40 537 49 54 6 169 18 256 26 86 8 226 22 310 30 498 50 751 75 763 75
22 0 17 18 -18 69 -145 213 -321 478 -334 503 -15 29 -15 32 2 42 11 6 33 14
49 17 87 19 271 71 279 79 9 9 -32 53 -278 301 -27 27 -53 49 -58 49 -10 0
-58 47 -110 109 l-37 43 -53 -20 c-50 -20 -418 -168 -833 -337 -104 -42 -318
-128 -475 -191 -157 -63 -294 -119 -305 -124 -27 -12 -159 -66 -340 -138 -82
-33 -224 -91 -315 -127 -91 -37 -282 -114 -425 -171 -143 -58 -269 -109 -280
-114 -11 -5 -83 -35 -160 -66 -77 -30 -230 -92 -339 -136 l-199 -80 -101 41
c-56 22 -335 134 -621 249 -286 115 -673 271 -860 347 -187 75 -468 189 -625
252 -369 149 -1044 421 -1327 534 -122 49 -225 89 -230 89 -4 0 -117 -109
-251 -241z"/>
</g>
</svg>
